<svg xmlns="http://www.w3.org/2000/svg" viewBox="0 0 20.81 20.81"><defs><style>.cls-1{fill:#fff;}</style></defs><title>Asset 19</title><g id="Layer_2" data-name="Layer 2"><g id="Layer_1-2" data-name="Layer 1"><path class="cls-1" d="M18.41,20.81H2.4A2.4,2.4,0,0,1,0,18.41V7.12a2.4,2.4,0,0,1,2.4-2.4h16a2.39,2.39,0,0,1,2.4,2.4V18.41A2.39,2.39,0,0,1,18.41,20.81ZM2.4,6.67A.45.45,0,0,0,2,7.12V18.41a.45.45,0,0,0,.45.45h16a.45.45,0,0,0,.45-.45V7.12a.45.45,0,0,0-.45-.45Z"/><path class="cls-1" d="M12.59,14.92H8.22a1.16,1.16,0,0,1-1.15-1.15V10.58A1.16,1.16,0,0,1,8.22,9.43h4.37a1.16,1.16,0,0,1,1.15,1.15v3.19A1.16,1.16,0,0,1,12.59,14.92ZM9,13h2.77V11.38H9Z"/><rect class="cls-1" x="0.97" y="11.13" width="7.07" height="1.95"/><rect class="cls-1" x="12.76" y="10.61" width="7.07" height="1.95"/><path class="cls-1" d="M16.1,5.69h-2a3.74,3.74,0,0,0-7.48,0H4.72a5.69,5.69,0,0,1,11.38,0Z"/></g></g></svg>