<svg xmlns="http://www.w3.org/2000/svg" viewBox="0 0 18.62 18.62"><defs><style>.cls-1{fill:#fff;}</style></defs><title>Iconly Bold Search</title><g id="Layer_2" data-name="Layer 2"><g id="Layer_1-2" data-name="Layer 1"><g id="Iconly_Bold_Search" data-name="Iconly Bold Search"><g id="Search-2"><path id="Search-3" class="cls-1" d="M16.73,18.29l-3.7-4a.9.9,0,0,1,0-1.27.82.82,0,0,1,1.16,0l4.07,3.65h0a1.13,1.13,0,0,1,0,1.58,1.1,1.1,0,0,1-1.55,0ZM0,7.23A7.19,7.19,0,0,1,7.15,0h0a7.06,7.06,0,0,1,5.06,2.12A7.24,7.24,0,0,1,7.15,14.46,7.19,7.19,0,0,1,0,7.23Z"/></g></g></g></g></svg>