<svg xmlns="http://www.w3.org/2000/svg" viewBox="0 0 30.39 30.39"><defs><style>.cls-1{fill:#0093e5;}</style></defs><title>Asset 17</title><g id="Layer_2" data-name="Layer 2"><g id="icon_set" data-name="icon set"><path class="cls-1" d="M15.2,0A15.2,15.2,0,1,0,30.39,15.2,15.19,15.19,0,0,0,15.2,0Zm6.3,7.56a4.12,4.12,0,0,1,0,8.24,4,4,0,0,1-2.78-1.15A4.33,4.33,0,0,0,19.6,12a4.43,4.43,0,0,0-1.12-3A4.06,4.06,0,0,1,21.5,7.56Zm-6.3.6a3.73,3.73,0,0,1,2.86,1.4,3.69,3.69,0,0,1,.83,2.4,3.67,3.67,0,0,1-.63,2.14,3.66,3.66,0,0,1-6.12,0A3.84,3.84,0,0,1,11.51,12a3.76,3.76,0,0,1,3.69-3.8Zm-6.3-.6a4.06,4.06,0,0,1,3,1.42,4.32,4.32,0,0,0-1.11,3,4.33,4.33,0,0,0,.87,2.69A4,4,0,0,1,8.9,15.8a4.12,4.12,0,0,1,0-8.24Zm1.64,15.2c-.55,0-1.11.07-1.66.07h-1a4.18,4.18,0,0,0-.61,0,10.94,10.94,0,0,1-1.79-.22A3.25,3.25,0,0,1,3,21.2a1.88,1.88,0,0,1,0-1.71,3.2,3.2,0,0,1,2.47-1.36,12.15,12.15,0,0,1,1.79-.22,18.72,18.72,0,0,1,2.8,0,2.32,2.32,0,0,0-.91,1,2.44,2.44,0,0,0,0,2.23,3.55,3.55,0,0,0,2.6,1.58Q11.14,22.73,10.54,22.76Zm6.19-.59h0a13.14,13.14,0,0,1-1.54,0h-.92a5.44,5.44,0,0,0-.57,0h-.09A11.53,11.53,0,0,1,12,22a3,3,0,0,1-2.27-1.25,1.73,1.73,0,0,1,0-1.58A2.6,2.6,0,0,1,11.57,18,3.57,3.57,0,0,1,12,17.9a11.32,11.32,0,0,1,1.64-.21,19.41,19.41,0,0,1,3.05,0,11.32,11.32,0,0,1,1.64.21l.46.11a2.62,2.62,0,0,1,1.81,1.14,1.76,1.76,0,0,1,0,1.55A2.94,2.94,0,0,1,18.36,22,11.36,11.36,0,0,1,16.73,22.17Zm8.19.36a11.75,11.75,0,0,1-1.77.23c-.56,0-1.11.07-1.68.07h-1a4.3,4.3,0,0,0-.61,0,12.36,12.36,0,0,1-1.35-.14A3.5,3.5,0,0,0,21.26,21a2.41,2.41,0,0,0,0-2.2,2.3,2.3,0,0,0-.91-.95,19,19,0,0,1,2.82,0,11.86,11.86,0,0,1,1.78.22,3.26,3.26,0,0,1,2.46,1.36,1.86,1.86,0,0,1,0,1.69A3.13,3.13,0,0,1,24.92,22.53Z"/></g></g></svg>