<svg xmlns="http://www.w3.org/2000/svg" viewBox="0 0 32.64 32.64"><defs><style>.cls-1{fill:#0093e5;}.cls-2{fill:#fff;}</style></defs><title>Asset 22</title><g id="Layer_2" data-name="Layer 2"><g id="Layer_1-2" data-name="Layer 1"><circle class="cls-1" cx="16.32" cy="16.32" r="16.32"/><g id="Iconly_Bold_Search" data-name="Iconly Bold Search"><g id="Search-2"><path id="Search-3" class="cls-2" d="M23.74,25.5l-3.7-4a.9.9,0,0,1,0-1.27.82.82,0,0,1,1.16,0l4.07,3.65h0a1.11,1.11,0,0,1,0,1.58,1.09,1.09,0,0,1-1.55,0ZM7,14.44a7.19,7.19,0,0,1,7.16-7.23h0a7.14,7.14,0,0,1,5.06,2.12,7.29,7.29,0,0,1,2.09,5.11A7.16,7.16,0,1,1,7,14.44Z"/></g></g></g></g></svg>