<svg xmlns="http://www.w3.org/2000/svg" viewBox="0 0 26.6 31.02"><defs><style>.cls-1,.cls-2{fill:#fff;stroke:#0071bc;stroke-linecap:round;stroke-linejoin:round;stroke-width:1.5px;}.cls-2{isolation:isolate;}</style></defs><title>Asset 16</title><g id="Layer_2" data-name="Layer 2"><g id="icon_set" data-name="icon set"><path id="Path_425-2-2" data-name="Path 425-2-2" class="cls-1" d="M.75,18.15v-.32a5.29,5.29,0,0,1,.89-2.69,7.14,7.14,0,0,0,1.77-3.41c0-1,0-2,.08-3,.44-4.74,5.13-8,9.75-8h.12c4.62,0,9.31,3.27,9.77,8,.08,1,0,2,.07,3A7.37,7.37,0,0,0,25,15.16a5.19,5.19,0,0,1,.89,2.67v.31a5.28,5.28,0,0,1-1.25,3.52,6.6,6.6,0,0,1-4.21,2,67.4,67.4,0,0,1-14.2,0,6.72,6.72,0,0,1-4.21-2A5.28,5.28,0,0,1,.75,18.15Z"/><path id="Path_421-2" data-name="Path 421-2" class="cls-2" d="M9.69,28.58a4.46,4.46,0,0,0,3,1.66A4.55,4.55,0,0,0,16,29.32a3.86,3.86,0,0,0,.77-.74"/></g></g></svg>