<svg xmlns="http://www.w3.org/2000/svg" viewBox="0 0 32.46 32.46"><defs><style>.cls-1{fill:#0093e5;}.cls-2{fill:#fff;}</style></defs><title>Asset 20</title><g id="Layer_2" data-name="Layer 2"><g id="Layer_1-2" data-name="Layer 1"><circle class="cls-1" cx="16.23" cy="16.23" r="16.23"/><path class="cls-2" d="M24.41,25.38H8.4A2.4,2.4,0,0,1,6,23V11.69a2.4,2.4,0,0,1,2.4-2.4h16a2.39,2.39,0,0,1,2.4,2.4V23A2.39,2.39,0,0,1,24.41,25.38ZM8.4,11.24a.45.45,0,0,0-.45.45V23a.45.45,0,0,0,.45.45h16a.45.45,0,0,0,.45-.45V11.69a.45.45,0,0,0-.45-.45Z"/><path class="cls-2" d="M18.59,19.49H14.22a1.16,1.16,0,0,1-1.15-1.15V15.15A1.16,1.16,0,0,1,14.22,14h4.37a1.16,1.16,0,0,1,1.15,1.15v3.19A1.16,1.16,0,0,1,18.59,19.49ZM15,17.54h2.77V16H15Z"/><rect class="cls-2" x="6.98" y="15.7" width="7.07" height="1.95"/><rect class="cls-2" x="18.77" y="15.18" width="7.07" height="1.95"/><path class="cls-2" d="M22.1,10.26h-2a3.74,3.74,0,1,0-7.48,0H10.72a5.69,5.69,0,0,1,11.38,0Z"/></g></g></svg>