<svg xmlns="http://www.w3.org/2000/svg" viewBox="0 0 38.04 38.04"><defs><style>.cls-1{fill:#fff;}.cls-2{fill:#047db2;}.cls-3{fill:#6cd2ff;}.cls-4{fill:#00b1ff;}</style></defs><title>Asset 23</title><g id="Layer_2" data-name="Layer 2"><g id="Layer_1-2" data-name="Layer 1"><path class="cls-1" d="M19,0A19,19,0,1,0,38,19,19,19,0,0,0,19,0Zm.22,34.61-10-14,10,5.89,10-5.89Zm0-10-10-5.9,10-16.57,10,16.57Z"/><polygon class="cls-1" points="19.24 26.47 19.24 34.61 9.25 20.58 19.24 26.47"/><polygon class="cls-1" points="29.22 18.69 19.24 24.59 9.25 18.69 19.24 2.12 19.24 14.15 29.22 18.69"/><polygon class="cls-2" points="29.22 18.69 19.24 24.59 19.24 14.15 29.22 18.69"/><polygon class="cls-3" points="19.24 26.47 19.24 34.61 9.25 20.58 19.24 26.47"/><polygon class="cls-4" points="19.24 14.15 19.24 24.59 9.25 18.69 19.24 14.15"/><polygon class="cls-3" points="19.24 2.12 19.24 14.15 9.25 18.69 19.24 2.12"/></g></g></svg>